<?xml version="1.0" encoding="iso-8859-1"?>
<!-- Generator: Adobe Illustrator 16.0.0, SVG Export Plug-In . SVG Version: 6.00 Build 0)  -->
<!DOCTYPE svg PUBLIC "-//W3C//DTD SVG 1.1//EN" "http://www.w3.org/Graphics/SVG/1.1/DTD/svg11.dtd">
<svg version="1.1" xmlns="http://www.w3.org/2000/svg" xmlns:xlink="http://www.w3.org/1999/xlink" x="0px" y="0px" width="500px"
	 height="500px" viewBox="0 0 500 500" style="enable-background:new 0 0 500 500;" xml:space="preserve">
<g id="&#x5716;&#x5C64;_1">
	<circle style="fill:#38BCA0;" cx="246" cy="250" r="184"/>
</g>
<g id="&#x5716;&#x5C64;_2">
	<g>
		<path style="fill:#38BCA0;" d="M405.543,158.279C373.769,103.128,314.221,66,246,66C144.379,66,62,148.379,62,250
			c0,101.62,82.379,184,184,184c68.142,0,127.627-37.043,159.43-92.087l-158.977-91.784L405.543,158.279z"/>
		<path style="fill:#5D846D;" d="M405.543,158.279l-159.09,91.85l158.977,91.784C421.055,314.868,430,283.479,430,250
			C430,216.6,421.1,185.28,405.543,158.279z"/>
	</g>
	<path style="fill:#B4EFE4;" d="M322.505,308.164c-2.283,0.003-7.271-1.136-12.723,3.636c-16.488,14.994-40.618,21.938-64.66,21.938
		c-51.267,0-83.738-32.472-83.738-83.738c0-51.268,32.472-83.739,83.738-83.739c24.212,0,43.438,3.575,59.964,18.759
		c2.499,2.5,5.26,4.7,7.271,6.059c2.202,1.487,8.315,3.804,12.875,3.029c4.014-0.682,11.813-4.936,12.741-12.23
		c0.891-7.006-2.144-10.892-2.849-12.557c-2.351-2.621-4.816-5.138-7.385-7.544c-21.613-20.248-50.665-32.651-82.617-32.651
		c-66.758,0-120.876,54.118-120.876,120.876s54.118,120.876,120.876,120.876c30.813,0,58.927-11.535,80.276-30.516
		c0.153-0.059,2.034-1.683,2.186-1.746c2.662-2.387,3.496-3.315,5.938-5.923c0.076-0.162,0.843-1.212,1.707-3.549
		c1.022-2.764,1.914-5.176,0.908-9.844C335.191,314.905,331.679,308.154,322.505,308.164z"/>
</g>
</svg>
